# xmcd
#
# Track frame offsets: 
#        150
#        16026
#        33549
#        42540
#        55905
#        82122
#        103452
#        110877
#        126375
#        128454
#        141036
#        141846
#        153510
#        156453
#        172653
#        182373
#        194145
#        197115
#        219957
#        221793
#        233619
#        235104
#        247308
#        249198
#        267396
#        275820
#        298716
#        312675
#        329577
#        330333
#
# Disc length: 4585 seconds
#
# Revision: 0
# Processed by: cddbd v1.5.2PL0 Copyright (c) Steve Scherf et al.
# Submitted via: ExactAudioCopy v0.95b3
#
DISCID=d711e71e
DTITLE=The Beatles  - The Days In Their Life - Vol.09  FLAC
DYEAR=1900
DGENRE=
TTITLE0=Narrative
TTITLE1=Strawberry Fields Forever
TTITLE2=Narrative
TTITLE3=Penny Lane
TTITLE4=Narrative
TTITLE5=Pepper's Lonely Hearts Club BandWith A Little Help From My Fri
TTITLE5=ends
TTITLE6=Narrative
TTITLE7=Lucy In The Sky With Diamonds
TTITLE8=Narrative
TTITLE9=Getting Better
TTITLE10=Narrative
TTITLE11=Fixing A Hole
TTITLE12=Narrative
TTITLE13=She's Leaving Home
TTITLE14=Narrative
TTITLE15=Kite
TTITLE16=Narrative
TTITLE17=Within You Without You
TTITLE18=Narrative
TTITLE19=Four
TTITLE20=Narrative
TTITLE21=Lovely Rita
TTITLE22=Narrative
TTITLE23=Good MorningSgt. Pepper's Lonely Hearts Club Band (Reprise)
TTITLE24=Narrative
TTITLE25=A Day In The Life
TTITLE26=Narrative
TTITLE27=All You Need Is Love
TTITLE28=Narrative
TTITLE29=Baby You're A Rich Man
EXTD=
EXTT0=
EXTT1=
EXTT2=
EXTT3=
EXTT4=
EXTT5=
EXTT6=
EXTT7=
EXTT8=
EXTT9=
EXTT10=
EXTT11=
EXTT12=
EXTT13=
EXTT14=
EXTT15=
EXTT16=
EXTT17=
EXTT18=
EXTT19=
EXTT20=
EXTT21=
EXTT22=
EXTT23=
EXTT24=
EXTT25=
EXTT26=
EXTT27=
EXTT28=
EXTT29=
PLAYORDER=
